# xmcd
#
# Track frame offsets:
#	150
#	19117
#	31017
#	49515
#	68722
#	84192
#	106204
#	123311
#	139830
#	152916
#	169481
#	190302
#	203010
#
# Disc length: 3051 seconds
# Revision: 1
# Processed by: cddbd v1.5.2PL0 Copyright (c) Steve Scherf et al.
# Submitted via: dBpowerAMP V12.0
#
DISCID=a40be90d
DTITLE=Eric Bibb - Deeper in the Well
DYEAR=2012
DGENRE=Blues
TTITLE0=Bayou Belle
TTITLE1=Could Be You, Could Be Me
TTITLE2=Dig a Little Deeper in the Well
TTITLE3=Money in Your Pocket
TTITLE4=Boll Weevil
TTITLE5=Sinner Man
TTITLE6=In My Time
TTITLE7=Music
TTITLE8=Movin' Up
TTITLE9=No Further
TTITLE10=Every Wind in the River
TTITLE11=Sittin' in a Hotel Room
TTITLE12=The Times They Are a-Changin'
EXTD=
EXTT0=
EXTT1=
EXTT2=
EXTT3=
EXTT4=
EXTT5=
EXTT6=
EXTT7=
EXTT8=
EXTT9=
EXTT10=
EXTT11=
EXTT12=
PLAYORDER=
